<?xml version="1.0" encoding="UTF-8" standalone="no"?>
<!DOCTYPE svg PUBLIC "-//W3C//DTD SVG 1.1//EN" "http://www.w3.org/Graphics/SVG/1.1/DTD/svg11.dtd">
<svg width="100%" height="100%" viewBox="0 0 28 28" version="1.1" xmlns="http://www.w3.org/2000/svg" xmlns:xlink="http://www.w3.org/1999/xlink" xml:space="preserve" xmlns:serif="http://www.serif.com/" style="fill-rule:evenodd;clip-rule:evenodd;stroke-linecap:round;stroke-linejoin:round;stroke-miterlimit:12;">
    <path d="M21.996,6.955L21.996,20.378C21.996,22.725 20.09,24.631 17.742,24.631L9.235,24.631C6.887,24.631 4.981,22.725 4.981,20.378L4.981,6.955C4.981,4.607 6.887,2.701 9.235,2.701L17.742,2.701C20.09,2.701 21.996,4.607 21.996,6.955Z" style="fill:none;stroke:black;stroke-width:0.7px;"/>
    <g transform="matrix(1,0,0,1.04975,0,-0.134381)">
        <path d="M21.996,6.753L21.996,20.579C21.996,22.816 20.09,24.631 17.742,24.631L9.235,24.631C6.887,24.631 4.981,22.816 4.981,20.579L4.981,6.753C4.981,4.517 6.887,2.701 9.235,2.701L17.742,2.701C20.09,2.701 21.996,4.517 21.996,6.753Z" style="fill:none;stroke:black;stroke-width:0.68px;"/>
    </g>
    <g transform="matrix(1,0,0,1.1026,0,-0.277128)">
        <path d="M21.996,6.559L21.996,20.773C21.996,22.903 20.09,24.631 17.742,24.631L9.235,24.631C6.887,24.631 4.981,22.903 4.981,20.773L4.981,6.559C4.981,4.43 6.887,2.701 9.235,2.701L17.742,2.701C20.09,2.701 21.996,4.43 21.996,6.559Z" style="fill:none;stroke:black;stroke-width:0.67px;"/>
    </g>
    <g transform="matrix(0.98012,0,0,1,0.432926,0)">
        <path d="M4.825,7.751L21.777,7.751" style="fill:none;stroke:black;stroke-width:0.71px;"/>
    </g>
    <g transform="matrix(1,0,0,1,0.393474,-1.13043)">
        <path d="M9.052,2.148L9.052,5.558C9.052,5.786 8.866,5.972 8.638,5.972L7.809,5.972C7.58,5.972 7.394,5.786 7.394,5.558L7.394,2.148C7.394,1.919 7.58,1.733 7.809,1.733L8.638,1.733C8.866,1.733 9.052,1.919 9.052,2.148Z" style="fill:white;stroke:black;stroke-width:0.7px;"/>
    </g>
    <g transform="matrix(1,0,0,1,3.42256,-1.22869)">
        <path d="M9.052,2.148L9.052,5.558C9.052,5.786 8.866,5.972 8.638,5.972L7.809,5.972C7.58,5.972 7.394,5.786 7.394,5.558L7.394,2.148C7.394,1.919 7.58,1.733 7.809,1.733L8.638,1.733C8.866,1.733 9.052,1.919 9.052,2.148Z" style="fill:white;stroke:black;stroke-width:0.7px;"/>
    </g>
    <g transform="matrix(1,0,0,1,6.31408,-1.26011)">
        <path d="M9.052,2.148L9.052,5.558C9.052,5.786 8.866,5.972 8.638,5.972L7.809,5.972C7.58,5.972 7.394,5.786 7.394,5.558L7.394,2.148C7.394,1.919 7.58,1.733 7.809,1.733L8.638,1.733C8.866,1.733 9.052,1.919 9.052,2.148Z" style="fill:white;stroke:black;stroke-width:0.7px;"/>
    </g>
    <g transform="matrix(1,0,0,1,9.10832,-1.36521)">
        <path d="M9.052,2.148L9.052,5.558C9.052,5.786 8.866,5.972 8.638,5.972L7.809,5.972C7.58,5.972 7.394,5.786 7.394,5.558L7.394,2.148C7.394,1.919 7.58,1.733 7.809,1.733L8.638,1.733C8.866,1.733 9.052,1.919 9.052,2.148Z" style="fill:white;stroke:black;stroke-width:0.7px;"/>
    </g>
    <path d="M6.207,10.515C8.165,9.607 8.803,9.571 12.825,9.571C16.106,9.571 16.287,10.473 19.759,10.12C20.211,10.074 20.197,10.032 20.258,9.991C20.374,9.914 20.513,9.867 20.637,9.816" style="fill:none;stroke:black;stroke-width:0.7px;"/>
    <g transform="matrix(1,0,0,1,0.170753,2.63065)">
        <path d="M6.207,10.515C8.165,9.607 8.803,9.571 12.825,9.571C16.106,9.571 16.287,10.473 19.759,10.12C20.211,10.074 20.197,10.032 20.258,9.991C20.374,9.914 20.513,9.867 20.637,9.816" style="fill:none;stroke:black;stroke-width:0.7px;"/>
    </g>
    <g transform="matrix(1,0,0,1,0.158893,5.423)">
        <path d="M6.207,10.515C8.165,9.607 8.803,9.571 12.825,9.571C16.106,9.571 16.287,10.473 19.759,10.12C20.211,10.074 20.197,10.032 20.258,9.991C20.374,9.914 20.513,9.867 20.637,9.816" style="fill:none;stroke:black;stroke-width:0.7px;"/>
    </g>
</svg>
